<?xml version="1.0" encoding="UTF-8" standalone="no"?>
<!-- Created with Inkscape (http://www.inkscape.org/) -->

<svg
   xmlns:dc="http://purl.org/dc/elements/1.1/"
   xmlns:cc="http://creativecommons.org/ns#"
   xmlns:rdf="http://www.w3.org/1999/02/22-rdf-syntax-ns#"
   xmlns:svg="http://www.w3.org/2000/svg"
   xmlns="http://www.w3.org/2000/svg"
   xmlns:xlink="http://www.w3.org/1999/xlink"
   xmlns:sodipodi="http://sodipodi.sourceforge.net/DTD/sodipodi-0.dtd"
   xmlns:inkscape="http://www.inkscape.org/namespaces/inkscape"
   width="120mm"
   height="120.00001mm"
   viewBox="0 0 120 120.00001"
   version="1.1"
   id="svg1196"
   inkscape:version="0.92.4 (5da689c313, 2019-01-14)"
   sodipodi:docname="caesura.svg">
  <defs
     id="defs1190">
    <linearGradient
       inkscape:collect="always"
       id="linearGradient13549">
      <stop
         style="stop-color:#f30d41;stop-opacity:1"
         offset="0"
         id="stop13545" />
      <stop
         style="stop-color:#f4aa1a;stop-opacity:0.98431373"
         offset="1"
         id="stop13547" />
    </linearGradient>
    <linearGradient
       inkscape:collect="always"
       id="linearGradient13541">
      <stop
         style="stop-color:#563500;stop-opacity:0.5411765"
         offset="0"
         id="stop13537" />
      <stop
         style="stop-color:#000000;stop-opacity:0.52941179"
         offset="1"
         id="stop13539" />
    </linearGradient>
    <linearGradient
       id="linearGradient1873"
       inkscape:collect="always">
      <stop
         id="stop1869"
         offset="0"
         style="stop-color:#ffffff;stop-opacity:0.785" />
      <stop
         id="stop1871"
         offset="1"
         style="stop-color:#eefffe;stop-opacity:0.039" />
    </linearGradient>
    <radialGradient
       inkscape:collect="always"
       xlink:href="#linearGradient1873"
       id="radialGradient1843-4"
       cx="160.18143"
       cy="150.43779"
       fx="160.18143"
       fy="150.43779"
       r="59.342262"
       gradientUnits="userSpaceOnUse"
       gradientTransform="matrix(1.9006092,0.59274898,-0.31881403,1.022238,-211.31207,-136.28021)" />
    <radialGradient
       inkscape:collect="always"
       xlink:href="#linearGradient13541"
       id="radialGradient13543"
       cx="-53.457031"
       cy="161.03943"
       fx="-53.457031"
       fy="161.03943"
       r="180.29086"
       gradientTransform="matrix(-0.15492053,0.63217134,-0.31839188,-0.07802549,-30.689395,4.8488536)"
       gradientUnits="userSpaceOnUse" />
    <radialGradient
       inkscape:collect="always"
       xlink:href="#linearGradient13549"
       id="radialGradient13551"
       cx="-280.31732"
       cy="240.65652"
       fx="-280.31732"
       fy="240.65652"
       r="224.28613"
       gradientTransform="matrix(0.29386501,0.35742755,-0.40387384,0.33205695,39.35902,-6.1190616)"
       gradientUnits="userSpaceOnUse" />
    <radialGradient
       inkscape:collect="always"
       xlink:href="#linearGradient13541"
       id="radialGradient13543-9"
       cx="-53.457031"
       cy="161.03943"
       fx="-53.457031"
       fy="161.03943"
       r="180.29086"
       gradientTransform="matrix(-0.31254996,0.5709234,-0.28754445,-0.15741524,-30.680791,21.96208)"
       gradientUnits="userSpaceOnUse" />
  </defs>
  <sodipodi:namedview
     id="base"
     pagecolor="#ffffff"
     bordercolor="#666666"
     borderopacity="1.0"
     inkscape:pageopacity="0.0"
     inkscape:pageshadow="2"
     inkscape:zoom="0.49497475"
     inkscape:cx="-393.48359"
     inkscape:cy="652.53547"
     inkscape:document-units="mm"
     inkscape:current-layer="layer1"
     showgrid="false"
     inkscape:window-width="2256"
     inkscape:window-height="1481"
     inkscape:window-x="-8"
     inkscape:window-y="-8"
     inkscape:window-maximized="1"
     fit-margin-top="0"
     fit-margin-left="0"
     fit-margin-right="0"
     fit-margin-bottom="0"
     inkscape:pagecheckerboard="true" />
  <metadata
     id="metadata1193">
    <rdf:RDF>
      <cc:Work
         rdf:about="">
        <dc:format>image/svg+xml</dc:format>
        <dc:type
           rdf:resource="http://purl.org/dc/dcmitype/StillImage" />
        <dc:title></dc:title>
      </cc:Work>
    </rdf:RDF>
  </metadata>
  <g
     inkscape:label="Layer 1"
     inkscape:groupmode="layer"
     id="layer1"
     transform="translate(-25.743478,-74.214849)">
    <g
       id="g13650"
       transform="matrix(1.0117384,0,0,1.0118094,182.87017,120.64748)">
      <path
         inkscape:connector-curvature="0"
         id="path13473-4"
         d="m -80.016277,-43.747393 a 59.342263,59.342263 0 0 0 -30.908863,-0.188859 59.342263,59.342263 0 0 0 -42.19635,41.4044227 59.342263,59.342263 0 0 0 41.21571,73.1047203 59.342263,59.342263 0 0 0 5.91381,1.263382 59.342263,59.342263 0 0 0 67.190762,-42.478588 59.342263,59.342263 0 0 0 1.391017,-6.479089 64.812859,48.776688 15.586383 0 0 -0.04209,-0.01068 59.342263,59.342263 0 0 0 0.650044,-5.896065 59.342263,59.342263 0 0 0 0.05845,-5.931259 59.342263,59.342263 0 0 0 -0.533376,-5.9021344 59.342263,59.342263 0 0 0 -6.51e-4,-0.00553 59.342263,59.342263 0 0 0 -0.09341,-0.4863676 59.342263,59.342263 0 0 0 -1.027645,-5.33613498 59.342263,59.342263 0 0 0 -4.2e-4,-0.002336 59.342263,59.342263 0 0 0 -0.06033,-0.20299253 59.342263,59.342263 0 0 0 -1.635799,-5.47734389 59.342263,59.342263 0 0 0 -0.0012,-0.00353 59.342263,59.342263 0 0 0 -0.15022,-0.3654067 59.342263,59.342263 0 0 0 -2.101221,-5.1109169 59.342263,59.342263 0 0 0 -0.0042,-0.0098 59.342263,59.342263 0 0 0 -0.498775,-0.93529 59.342263,59.342263 0 0 0 -2.286568,-4.284915 59.342263,59.342263 0 0 0 -0.007,-0.01323 59.342263,59.342263 0 0 0 -0.724642,-1.081449 59.342263,59.342263 0 0 0 -2.570755,-3.837351 59.342263,59.342263 0 0 0 -0.006,-0.0092 59.342263,59.342263 0 0 0 -0.696962,-0.844109 59.342263,59.342263 0 0 0 -3.070094,-3.71859 59.342263,59.342263 0 0 0 -0.0096,-0.01182 59.342263,59.342263 0 0 0 -1.096274,-1.085863 59.342263,59.342263 0 0 0 -3.103465,-3.073912 59.342263,59.342263 0 0 0 -0.01426,-0.01417 59.342263,59.342263 0 0 0 -1.482363,-1.200002 59.342263,59.342263 0 0 0 -3.111563,-2.519828 59.342263,59.342263 0 0 0 -0.0162,-0.01312 59.342263,59.342263 0 0 0 -1.70289,-1.117202 59.342263,59.342263 0 0 0 -3.237135,-2.123517 59.342263,59.342263 0 0 0 -0.01997,-0.01304 59.342263,59.342263 0 0 0 -2.415827,-1.259742 59.342263,59.342263 0 0 0 -2.822336,-1.471853 59.342263,59.342263 0 0 0 -0.02101,-0.01126 59.342263,59.342263 0 0 0 -0.405359,-0.175842 59.342263,59.342263 0 0 0 -0.06632,-0.02763 59.342263,59.342263 0 0 0 -1.802309,-0.783875 47.473809,47.473809 0 0 0 -0.140468,-0.02148 47.473809,47.473809 0 0 0 -9.64e-4,-2.69e-4 59.342263,59.342263 0 0 0 -6.334826,-2.237061 z"
         style="opacity:1;vector-effect:none;fill:url(#radialGradient13551);fill-opacity:1;stroke:none;stroke-width:0.32600001;stroke-linecap:butt;stroke-linejoin:miter;stroke-miterlimit:4;stroke-dasharray:none;stroke-dashoffset:0;stroke-opacity:0.70980392" />
      <path
         inkscape:connector-curvature="0"
         id="path13504"
         d="m -73.539984,-41.488576 a 47.473809,47.473809 0 0 0 -0.140469,-0.02148 47.473809,47.473809 0 0 0 -9.63e-4,-2.69e-4 47.473809,47.473809 0 0 0 -3.021355,-0.460283 47.473809,47.473809 0 0 0 -4.739304,-0.242601 47.473809,47.473809 0 0 0 -4.739963,0.23094 47.473809,47.473809 0 0 0 -4.69306,0.703262 47.473809,47.473809 0 0 0 -4.599074,1.16833 47.473809,47.473809 0 0 0 -1.317794,0.479525 47.473809,47.473809 0 0 0 -3.142209,1.142308 47.473809,47.473809 0 0 0 -4.275625,2.059004 47.473809,47.473809 0 0 0 -4.04842,2.475395 47.473809,47.473809 0 0 0 -3.78105,2.867046 47.473809,47.473809 0 0 0 -3.47631,3.23049 47.473809,47.473809 0 0 0 -3.13607,3.56092 47.473809,47.473809 0 0 0 -2.76531,3.856948 47.473809,47.473809 0 0 0 -2.36625,4.113115 47.473809,47.473809 0 0 0 -1.94369,4.329172 47.473809,47.473809 0 0 0 -1.50187,4.5012337 47.473809,47.473809 0 0 0 -0.78789,3.2668803 47.473809,47.473809 0 0 0 -0.71524,4.69116086 47.473809,47.473809 0 0 0 -0.2431,4.73916544 47.473809,47.473809 0 0 0 0.23158,4.7395981 47.473809,47.473809 0 0 0 0.70326,4.6930586 47.473809,47.473809 0 0 0 1.16834,4.599073 47.473809,47.473809 0 0 0 1.62182,4.46001 47.473809,47.473809 0 0 0 2.05851,4.275487 47.473809,47.473809 0 0 0 2.4754,4.048418 47.473809,47.473809 0 0 0 2.8674,3.781688 47.473809,47.473809 0 0 0 3.23013,3.47567 47.473809,47.473809 0 0 0 3.56128,3.136706 47.473809,47.473809 0 0 0 3.85646,2.765165 47.473809,47.473809 0 0 0 4.11375,2.365904 47.473809,47.473809 0 0 0 4.329025,1.944185 47.473809,47.473809 0 0 0 4.50124,1.501861 47.473809,47.473809 0 0 0 3.266878,0.787904 47.473809,47.473809 0 0 0 4.691301,0.714731 47.473809,47.473809 0 0 0 4.738668,0.242959 47.473809,47.473809 0 0 0 4.740097,-0.231439 47.473809,47.473809 0 0 0 1.566576,-0.234693 59.342263,59.342263 0 0 1 -3.184703,3.616027 59.342263,59.342263 0 0 1 -4.344856,4.038131 59.342263,59.342263 0 0 1 -4.726753,3.583947 59.342263,59.342263 0 0 1 -5.060683,3.094335 59.342263,59.342263 0 0 1 -5.344483,2.573099 59.342263,59.342263 0 0 1 -5.574697,2.027109 59.342263,59.342263 0 0 1 -2.50248,0.63566 59.342263,59.342263 0 0 0 67.190767,-42.478588 59.342263,59.342263 0 0 0 1.391016,-6.479089 64.812859,48.776688 15.586383 0 0 -0.04209,-0.01066 59.342263,59.342263 0 0 0 0.650043,-5.896065 59.342263,59.342263 0 0 0 0.05845,-5.93126 59.342263,59.342263 0 0 0 -0.533376,-5.9021361 59.342263,59.342263 0 0 0 -6.51e-4,-0.00553 59.342263,59.342263 0 0 0 -0.09341,-0.4863676 59.342263,59.342263 0 0 0 -1.027645,-5.3361341 59.342263,59.342263 0 0 0 -4.2e-4,-0.002336 59.342263,59.342263 0 0 0 -0.06033,-0.20299162 59.342263,59.342263 0 0 0 -1.635798,-5.47734388 59.342263,59.342263 0 0 0 -0.0012,-0.00353 59.342263,59.342263 0 0 0 -0.15022,-0.3654066 59.342263,59.342263 0 0 0 -2.101222,-5.1109181 59.342263,59.342263 0 0 0 -0.0042,-0.0098 59.342263,59.342263 0 0 0 -0.498774,-0.935289 59.342263,59.342263 0 0 0 -2.286569,-4.284915 59.342263,59.342263 0 0 0 -0.007,-0.01323 59.342263,59.342263 0 0 0 -0.724642,-1.08145 59.342263,59.342263 0 0 0 -2.570754,-3.837352 59.342263,59.342263 0 0 0 -0.006,-0.0092 59.342263,59.342263 0 0 0 -0.696961,-0.844109 59.342263,59.342263 0 0 0 -3.070096,-3.718589 59.342263,59.342263 0 0 0 -0.0096,-0.01182 59.342263,59.342263 0 0 0 -1.096273,-1.085864 59.342263,59.342263 0 0 0 -3.103464,-3.073912 59.342263,59.342263 0 0 0 -0.01426,-0.01417 59.342263,59.342263 0 0 0 -1.482363,-1.200002 59.342263,59.342263 0 0 0 -3.111563,-2.519828 59.342263,59.342263 0 0 0 -0.0162,-0.01312 59.342263,59.342263 0 0 0 -1.70289,-1.117201 59.342263,59.342263 0 0 0 -3.237135,-2.123517 59.342263,59.342263 0 0 0 -0.01997,-0.01304 59.342263,59.342263 0 0 0 -2.415827,-1.259742 59.342263,59.342263 0 0 0 -2.822336,-1.471853 59.342263,59.342263 0 0 0 -0.02101,-0.01126 59.342263,59.342263 0 0 0 -0.405357,-0.175843 59.342263,59.342263 0 0 0 -0.06632,-0.02763 59.342263,59.342263 0 0 0 -1.802309,-0.783875 z"
         style="opacity:1;vector-effect:none;fill:url(#radialGradient13543);fill-opacity:1;stroke:none;stroke-width:0.32600001;stroke-linecap:butt;stroke-linejoin:miter;stroke-miterlimit:4;stroke-dasharray:none;stroke-dashoffset:0;stroke-opacity:0.70980392" />
      <path
         inkscape:connector-curvature="0"
         id="path13504-8"
         d="m -60.147699,-33.850385 a 47.473809,47.473809 0 0 0 -0.130198,-0.05694 47.473809,47.473809 0 0 0 -8.85e-4,-4.95e-4 47.473809,47.473809 0 0 0 -2.800797,-1.223102 47.473809,47.473809 0 0 0 -4.516839,-1.45534 47.473809,47.473809 0 0 0 -4.63947,-0.997953 47.473809,47.473809 0 0 0 -4.715826,-0.52949 47.473809,47.473809 0 0 0 -4.744825,-0.05591 47.473809,47.473809 0 0 0 -1.396849,0.123852 47.473809,47.473809 0 0 0 -3.330427,0.294265 47.473809,47.473809 0 0 0 -4.661746,0.888029 47.473809,47.473809 0 0 0 -4.54948,1.348899 47.473809,47.473809 0 0 0 -4.392029,1.796209 47.473809,47.473809 0 0 0 -4.19121,2.225893 47.473809,47.473809 0 0 0 -3.94757,2.632822 47.473809,47.473809 0 0 0 -3.66559,3.014371 47.473809,47.473809 0 0 0 -3.346,3.364697 47.473809,47.473809 0 0 0 -2.99335,3.682323 47.473809,47.473809 0 0 0 -2.61078,3.962396 47.473809,47.473809 0 0 0 -1.6029,2.953635 47.473809,47.473809 0 0 0 -1.89962,4.3485644 47.473809,47.473809 0 0 0 -1.45579,4.5165786 47.473809,47.473809 0 0 0 -0.99724,4.6392793 47.473809,47.473809 0 0 0 -0.52949,4.7158286 47.473809,47.473809 0 0 0 -0.0559,4.7448211 47.473809,47.473809 0 0 0 0.41811,4.727281 47.473809,47.473809 0 0 0 0.88758,4.661489 47.473809,47.473809 0 0 0 1.34891,4.549475 47.473809,47.473809 0 0 0 1.79638,4.392738 47.473809,47.473809 0 0 0 2.22571,4.190496 47.473809,47.473809 0 0 0 2.633,3.948277 47.473809,47.473809 0 0 0 3.01394,3.665329 47.473809,47.473809 0 0 0 3.36541,3.345817 47.473809,47.473809 0 0 0 3.68204,2.993798 47.473809,47.473809 0 0 0 3.96241,2.610767 47.473809,47.473809 0 0 0 2.95363,1.602913 47.473809,47.473809 0 0 0 4.348833,1.899168 47.473809,47.473809 0 0 0 4.516134,1.455522 47.473809,47.473809 0 0 0 4.639726,0.997512 47.473809,47.473809 0 0 0 1.574158,0.176799 59.342263,59.342263 0 0 1 -4.00876,2.673539 59.342263,59.342263 0 0 1 -5.238503,2.78252 59.342263,59.342263 0 0 1 -5.490488,2.24529 59.342263,59.342263 0 0 1 -5.68703,1.686168 59.342263,59.342263 0 0 1 -5.82696,1.109417 59.342263,59.342263 0 0 1 -5.90876,0.522548 59.342263,59.342263 0 0 1 -2.58176,-0.03048 59.342263,59.342263 0 0 0 75.866099,-23.735285 59.342263,59.342263 0 0 0 3.013192,-5.90205 64.81286,48.776689 30.515128 0 0 -0.03795,-0.02115 59.342263,59.342263 0 0 0 2.147035,-5.529592 59.342263,59.342263 0 0 0 1.584476,-5.716005 59.342263,59.342263 0 0 0 1.005118,-5.840326 59.342263,59.342263 0 0 0 0.0011,-0.0056 59.342263,59.342263 0 0 0 0.03504,-0.494012 59.342263,59.342263 0 0 0 0.381725,-5.420764 59.342263,59.342263 0 0 0 8.9e-5,-0.0025 59.342263,59.342263 0 0 0 -0.006,-0.211683 59.342263,59.342263 0 0 0 -0.169519,-5.7138789 59.342263,59.342263 0 0 0 -3.59e-4,-0.00368 59.342263,59.342263 0 0 0 -0.05095,-0.3917826 59.342263,59.342263 0 0 0 -0.713637,-5.4797197 59.342263,59.342263 0 0 0 -0.0015,-0.010562 59.342263,59.342263 0 0 0 -0.240992,-1.0322148 59.342263,59.342263 0 0 0 -1.105531,-4.7293456 59.342263,59.342263 0 0 0 -0.0033,-0.014616 59.342263,59.342263 0 0 0 -0.421584,-1.2316278 59.342263,59.342263 0 0 0 -1.495413,-4.3701021 59.342263,59.342263 0 0 0 -0.0038,-0.010367 59.342263,59.342263 0 0 0 -0.455955,-0.9951791 59.342263,59.342263 0 0 0 -2.008486,-4.3839894 59.342263,59.342263 0 0 0 -0.0064,-0.01384 59.342263,59.342263 0 0 0 -0.779537,-1.331631 59.342263,59.342263 0 0 0 -2.206816,-3.769665 59.342263,59.342263 0 0 0 -0.01001,-0.01739 59.342263,59.342263 0 0 0 -1.123188,-1.54138 59.342263,59.342263 0 0 0 -2.357385,-3.23637 59.342263,59.342263 0 0 0 -0.01198,-0.01689 59.342263,59.342263 0 0 0 -1.357605,-1.518185 59.342263,59.342263 0 0 0 -2.580819,-2.885785 59.342263,59.342263 0 0 0 -0.01589,-0.01775 59.342263,59.342263 0 0 0 -2.009756,-1.839581 59.342263,59.342263 0 0 0 -2.347896,-2.149257 59.342263,59.342263 0 0 0 -0.01733,-0.01631 59.342263,59.342263 0 0 0 -0.346368,-0.274337 59.342263,59.342263 0 0 0 -0.05698,-0.04378 59.342263,59.342263 0 0 0 -1.539542,-1.221721 z"
         style="opacity:1;vector-effect:none;fill:url(#radialGradient13543-9);fill-opacity:1;stroke:none;stroke-width:0.32600001;stroke-linecap:butt;stroke-linejoin:miter;stroke-miterlimit:4;stroke-dasharray:none;stroke-dashoffset:0;stroke-opacity:0.70980392" />
    </g>
  </g>
</svg>
