<?xml version="1.0" encoding="UTF-8" standalone="no"?>
<!-- Created with Inkscape (http://www.inkscape.org/) -->

<svg
   xmlns:dc="http://purl.org/dc/elements/1.1/"
   xmlns:cc="http://creativecommons.org/ns#"
   xmlns:rdf="http://www.w3.org/1999/02/22-rdf-syntax-ns#"
   xmlns:svg="http://www.w3.org/2000/svg"
   xmlns="http://www.w3.org/2000/svg"
   xmlns:xlink="http://www.w3.org/1999/xlink"
   xmlns:sodipodi="http://sodipodi.sourceforge.net/DTD/sodipodi-0.dtd"
   xmlns:inkscape="http://www.inkscape.org/namespaces/inkscape"
   width="120mm"
   height="120mm"
   viewBox="0 0 120 120"
   version="1.1"
   id="svg8"
   inkscape:version="0.92.4 5da689c313, 2019-01-14"
   sodipodi:docname="cataclysm.svg">
  <defs
     id="defs2">
    <linearGradient
       id="linearGradient1150"
       inkscape:collect="always">
      <stop
         id="stop1146"
         offset="0"
         style="stop-color:#c73800;stop-opacity:1" />
      <stop
         id="stop1148"
         offset="1"
         style="stop-color:#fff045;stop-opacity:1" />
    </linearGradient>
    <linearGradient
       inkscape:collect="always"
       id="linearGradient1134">
      <stop
         style="stop-color:#bfe2e5;stop-opacity:1;"
         offset="0"
         id="stop1130" />
      <stop
         style="stop-color:#e8f5f6;stop-opacity:1"
         offset="1"
         id="stop1132" />
    </linearGradient>
    <linearGradient
       inkscape:collect="always"
       id="linearGradient1126">
      <stop
         style="stop-color:#86c7ce;stop-opacity:1;"
         offset="0"
         id="stop1122" />
      <stop
         style="stop-color:#a2d4da;stop-opacity:0.50196081"
         offset="1"
         id="stop1124" />
    </linearGradient>
    <linearGradient
       inkscape:collect="always"
       id="linearGradient1118">
      <stop
         style="stop-color:#4daab7;stop-opacity:1;"
         offset="0"
         id="stop1114" />
      <stop
         style="stop-color:#69b8c3;stop-opacity:0.50196081"
         offset="1"
         id="stop1116" />
    </linearGradient>
    <linearGradient
       inkscape:collect="always"
       id="linearGradient1110">
      <stop
         style="stop-color:#347780;stop-opacity:1;"
         offset="0"
         id="stop1106" />
      <stop
         style="stop-color:#40919c;stop-opacity:0.50196081"
         offset="1"
         id="stop1108" />
    </linearGradient>
    <linearGradient
       inkscape:collect="always"
       xlink:href="#linearGradient1110"
       id="linearGradient1112"
       x1="44.914612"
       y1="119.83839"
       x2="79.122299"
       y2="119.83839"
       gradientUnits="userSpaceOnUse"
       gradientTransform="rotate(20,71.098118,119.83839)" />
    <linearGradient
       inkscape:collect="always"
       xlink:href="#linearGradient1118"
       id="linearGradient1120"
       x1="45.028553"
       y1="119.81268"
       x2="89.27739"
       y2="119.81268"
       gradientUnits="userSpaceOnUse"
       gradientTransform="rotate(20,71.098118,119.83839)" />
    <linearGradient
       inkscape:collect="always"
       xlink:href="#linearGradient1126"
       id="linearGradient1128"
       x1="45.022263"
       y1="119.62871"
       x2="95.746643"
       y2="119.62871"
       gradientUnits="userSpaceOnUse"
       gradientTransform="rotate(20,71.098118,119.83839)" />
    <linearGradient
       inkscape:collect="always"
       xlink:href="#linearGradient1134"
       id="linearGradient1136"
       x1="45.020203"
       y1="118.82496"
       x2="97.249039"
       y2="118.82496"
       gradientUnits="userSpaceOnUse"
       gradientTransform="rotate(20,71.098118,119.83839)" />
    <linearGradient
       inkscape:collect="always"
       xlink:href="#linearGradient1150"
       id="linearGradient1144"
       x1="81.49984"
       y1="143.78169"
       x2="64.423325"
       y2="120.22299"
       gradientUnits="userSpaceOnUse"
       gradientTransform="matrix(0.99760276,0,0,0.99760276,45.132681,-42.447026)" />
  </defs>
  <sodipodi:namedview
     id="base"
     pagecolor="#ffffff"
     bordercolor="#666666"
     borderopacity="1.0"
     inkscape:pageopacity="0.0"
     inkscape:pageshadow="2"
     inkscape:zoom="0.5"
     inkscape:cx="-23.409183"
     inkscape:cy="185.06696"
     inkscape:document-units="mm"
     inkscape:current-layer="layer1"
     showgrid="false"
     inkscape:window-width="4500"
     inkscape:window-height="2977"
     inkscape:window-x="0"
     inkscape:window-y="23"
     inkscape:window-maximized="0"
     fit-margin-top="0"
     fit-margin-left="0"
     fit-margin-right="0"
     fit-margin-bottom="0" />
  <metadata
     id="metadata5">
    <rdf:RDF>
      <cc:Work
         rdf:about="">
        <dc:format>image/svg+xml</dc:format>
        <dc:type
           rdf:resource="http://purl.org/dc/dcmitype/StillImage" />
        <dc:title></dc:title>
      </cc:Work>
    </rdf:RDF>
  </metadata>
  <g
     inkscape:label="Layer 1"
     inkscape:groupmode="layer"
     id="layer1"
     transform="translate(-11.130488,-59.763561)">
    <g
       id="g1208"
       transform="matrix(2.2957079,0,0,2.2940429,-92.164334,-154.97919)">
      <circle
         transform="rotate(25.720746)"
         r="26.064968"
         cy="77.089355"
         cx="116.11611"
         id="path815-3-7-0-9-3"
         style="opacity:1;fill:url(#linearGradient1144);fill-opacity:1;fill-rule:nonzero;stroke:none;stroke-width:0.03619912;stroke-miterlimit:4;stroke-dasharray:none;stroke-opacity:1" />
      <path
         inkscape:connector-curvature="0"
         id="path815-3-7-0-9-6"
         d="M 95.091541,118.51748 A 23.859573,23.859573 0 0 0 69.518153,96.504773 23.859573,23.859573 0 0 0 47.505442,122.07817 a 23.859573,23.859573 0 0 0 6.007259,14.09887 23.859573,23.859573 0 0 1 0.604608,-0.93207 23.859573,23.859573 0 0 1 1.490964,-1.86156 23.859573,23.859573 0 0 1 1.669377,-1.70313 23.859573,23.859573 0 0 1 1.830603,-1.52827 23.859573,23.859573 0 0 1 1.974504,-1.33791 23.859573,23.859573 0 0 1 2.098166,-1.13373 23.859573,23.859573 0 0 1 2.200809,-0.91902 23.859573,23.859573 0 0 1 2.281958,-0.6946 23.859573,23.859573 0 0 1 2.339513,-0.46326 23.859573,23.859573 0 0 1 1.67841,-0.18521 23.859573,23.859573 0 0 1 2.384403,-0.0592 23.859573,23.859573 0 0 1 2.378139,0.17932 23.859573,23.859573 0 0 1 2.348522,0.41628 23.859573,23.859573 0 0 1 2.29491,0.64838 23.859573,23.859573 0 0 1 2.219065,0.87411 23.859573,23.859573 0 0 1 2.120308,1.09162 23.859573,23.859573 0 0 1 2.001332,1.29737 23.859573,23.859573 0 0 1 1.861565,1.49097 23.859573,23.859573 0 0 1 1.70308,1.66942 23.859573,23.859573 0 0 1 0.255218,0.30555 23.859573,23.859573 0 0 0 3.843305,-14.81465 z"
         style="opacity:0.15400002;fill:#000000;fill-opacity:1;fill-rule:nonzero;stroke:none;stroke-width:0.03313624;stroke-miterlimit:4;stroke-dasharray:none;stroke-opacity:1" />
      <path
         inkscape:connector-curvature="0"
         id="path815-3-7-0-9"
         d="M 96.878458,115.31013 A 26.127603,26.127603 0 0 0 66.6108,94.116472 26.127603,26.127603 0 0 0 45.417145,124.38415 a 26.127603,26.127603 0 0 0 8.084498,14.70645 26.127603,26.127603 0 0 1 0.557044,-1.08158 26.127603,26.127603 0 0 1 1.421361,-2.1911 26.127603,26.127603 0 0 1 1.633052,-2.03797 26.127603,26.127603 0 0 1 1.827813,-1.86502 26.127603,26.127603 0 0 1 2.005386,-1.67332 26.127603,26.127603 0 0 1 2.162417,-1.46435 26.127603,26.127603 0 0 1 2.297694,-1.24159 26.127603,26.127603 0 0 1 2.410609,-1.00593 26.127603,26.127603 0 0 1 2.498575,-0.76014 26.127603,26.127603 0 0 1 1.808582,-0.38502 26.127603,26.127603 0 0 1 2.591598,-0.32474 26.127603,26.127603 0 0 1 2.610803,-0.0642 26.127603,26.127603 0 0 1 2.604395,0.19723 26.127603,26.127603 0 0 1 2.571318,0.45597 26.127603,26.127603 0 0 1 2.513314,0.71021 26.127603,26.127603 0 0 1 2.42945,0.95799 26.127603,26.127603 0 0 1 2.322274,1.19517 26.127603,26.127603 0 0 1 2.191115,1.42137 26.127603,26.127603 0 0 1 2.03791,1.63311 26.127603,26.127603 0 0 1 0.311437,0.30506 26.127603,26.127603 0 0 0 2.570581,-16.56161 z"
         style="opacity:1;fill:url(#linearGradient1136);fill-opacity:1;fill-rule:nonzero;stroke:none;stroke-width:0.03628609;stroke-miterlimit:4;stroke-dasharray:none;stroke-opacity:1" />
      <path
         id="path815-3-7-9-1-2"
         d="m 93.778476,106.77967 a 26.127604,26.127604 0 0 0 -35.690946,-9.563351 26.127604,26.127604 0 0 0 -9.563373,35.690961 26.127604,26.127604 0 0 0 9.758087,9.63891 26.127604,26.127604 0 0 1 0.04693,-1.7832 26.127604,26.127604 0 0 1 0.329523,-2.59081 26.127604,26.127604 0 0 1 0.58625,-2.5451 26.127604,26.127604 0 0 1 0.837269,-2.47405 26.127604,26.127604 0 0 1 1.079969,-2.37725 26.127604,26.127604 0 0 1 1.312149,-2.25828 26.127604,26.127604 0 0 1 1.531155,-2.11563 26.127604,26.127604 0 0 1 1.734502,-1.95257 26.127604,26.127604 0 0 1 1.92119,-1.76975 26.127604,26.127604 0 0 1 2.087904,-1.56885 26.127604,26.127604 0 0 1 1.567563,-0.98081 26.127604,26.127604 0 0 1 2.324512,-1.19109 26.127604,26.127604 0 0 1 2.431377,-0.95325 26.127604,26.127604 0 0 1 2.514796,-0.70544 26.127604,26.127604 0 0 1 2.572208,-0.45096 26.127604,26.127604 0 0 1 2.604637,-0.19223 26.127604,26.127604 0 0 1 2.610351,0.0688 26.127604,26.127604 0 0 1 2.591256,0.32927 26.127604,26.127604 0 0 1 2.545096,0.58625 26.127604,26.127604 0 0 1 2.473603,0.83753 26.127604,26.127604 0 0 1 2.377949,1.08016 26.127604,26.127604 0 0 1 0.887347,0.5158 26.127604,26.127604 0 0 0 -3.471328,-13.27513 z"
         style="opacity:0.80199998;fill:url(#linearGradient1128);fill-opacity:1;fill-rule:nonzero;stroke:none;stroke-width:0.03628609;stroke-miterlimit:4;stroke-dasharray:none;stroke-opacity:1"
         inkscape:connector-curvature="0" />
      <path
         id="path815-3-7-9"
         d="m 87.951314,99.831907 a 26.127603,26.127603 0 0 0 -36.8094,3.220403 26.127603,26.127603 0 0 0 3.220403,36.80941 26.127603,26.127603 0 0 0 9.552591,5.05548 26.127603,26.127603 0 0 1 -0.877211,-1.95167 26.127603,26.127603 0 0 1 -0.82852,-2.4768 26.127603,26.127603 0 0 1 -0.576458,-2.54727 26.127603,26.127603 0 0 1 -0.319578,-2.59211 26.127603,26.127603 0 0 1 -0.05935,-2.61122 26.127603,26.127603 0 0 1 0.20177,-2.60325 26.127603,26.127603 0 0 1 0.460635,-2.57087 26.127603,26.127603 0 0 1 0.715231,-2.51172 26.127603,26.127603 0 0 1 0.962082,-2.42805 26.127603,26.127603 0 0 1 1.200039,-2.32011 26.127603,26.127603 0 0 1 1.425414,-2.18835 26.127603,26.127603 0 0 1 1.137564,-1.45779 26.127603,26.127603 0 0 1 1.776948,-1.91429 26.127603,26.127603 0 0 1 1.958724,-1.72735 26.127603,26.127603 0 0 1 2.121864,-1.523 26.127603,26.127603 0 0 1 2.262844,-1.30352 26.127603,26.127603 0 0 1 2.381812,-1.07147 26.127603,26.127603 0 0 1 2.476463,-0.82812 26.127603,26.127603 0 0 1 2.547597,-0.57686 26.127603,26.127603 0 0 1 2.592122,-0.31957 26.127603,26.127603 0 0 1 2.610881,-0.059 26.127603,26.127603 0 0 1 2.603969,0.2017 26.127603,26.127603 0 0 1 2.570878,0.46063 26.127603,26.127603 0 0 1 1.353098,0.38525 26.127603,26.127603 0 0 0 -6.662408,-8.550523 z"
         style="opacity:0.653;fill:url(#linearGradient1120);fill-opacity:1;fill-rule:nonzero;stroke:none;stroke-width:0.03628609;stroke-miterlimit:4;stroke-dasharray:none;stroke-opacity:1"
         inkscape:connector-curvature="0" />
      <path
         inkscape:connector-curvature="0"
         id="path815-3-7"
         d="m 80.09163,95.291704 c -15.701719,-6.399586 -34.829855,6.337356 -35.032327,23.270456 -1.055123,13.9895 10.976983,27.19663 25.019687,27.3561 -9.63625,-7.14907 -12.934633,-21.28792 -7.542763,-31.98782 4.312207,-9.22002 14.436991,-15.343016 24.61351,-14.732369 -2.131573,-1.656965 -4.522324,-2.980109 -7.058107,-3.906367 z"
         style="opacity:0.503;fill:url(#linearGradient1112);fill-opacity:1;fill-rule:nonzero;stroke:none;stroke-width:0.03628609;stroke-miterlimit:4;stroke-dasharray:none;stroke-opacity:1" />
    </g>
  </g>
</svg>
