<?xml version="1.0" encoding="UTF-8" standalone="no"?>
<!-- Created with Inkscape (http://www.inkscape.org/) -->

<svg
   xmlns:dc="http://purl.org/dc/elements/1.1/"
   xmlns:cc="http://creativecommons.org/ns#"
   xmlns:rdf="http://www.w3.org/1999/02/22-rdf-syntax-ns#"
   xmlns:svg="http://www.w3.org/2000/svg"
   xmlns="http://www.w3.org/2000/svg"
   xmlns:xlink="http://www.w3.org/1999/xlink"
   xmlns:sodipodi="http://sodipodi.sourceforge.net/DTD/sodipodi-0.dtd"
   xmlns:inkscape="http://www.inkscape.org/namespaces/inkscape"
   width="210mm"
   height="297mm"
   viewBox="0 0 210 297"
   version="1.1"
   id="svg8"
   inkscape:version="0.92.4 (5da689c313, 2019-01-14)"
   sodipodi:docname="quarantine.svg">
  <defs
     id="defs2">
    <linearGradient
       id="linearGradient870"
       inkscape:collect="always">
      <stop
         id="stop866"
         offset="0"
         style="stop-color:#ffffff;stop-opacity:0.61960787" />
      <stop
         id="stop868"
         offset="1"
         style="stop-color:#ffc02b;stop-opacity:0.01869159" />
    </linearGradient>
    <linearGradient
       inkscape:collect="always"
       id="linearGradient836">
      <stop
         style="stop-color:#f8a000;stop-opacity:1"
         offset="0"
         id="stop832" />
      <stop
         style="stop-color:#ffd72b;stop-opacity:1"
         offset="1"
         id="stop834" />
    </linearGradient>
    <radialGradient
       inkscape:collect="always"
       xlink:href="#linearGradient836"
       id="radialGradient840"
       cx="21.166666"
       cy="170"
       fx="21.166666"
       fy="170"
       r="41.707275"
       gradientUnits="userSpaceOnUse"
       gradientTransform="matrix(1.8577375,-0.56539859,0.44406726,1.459078,-93.646878,-66.075648)" />
    <radialGradient
       inkscape:collect="always"
       xlink:href="#linearGradient870"
       id="radialGradient840-0"
       cx="46.348877"
       cy="188.26717"
       fx="46.348877"
       fy="188.26717"
       r="41.707275"
       gradientUnits="userSpaceOnUse"
       gradientTransform="matrix(-1.3431184,-1.4296452,1.581473,-1.4857637,-149.29771,515.82315)" />
  </defs>
  <sodipodi:namedview
     id="base"
     pagecolor="#ffffff"
     bordercolor="#666666"
     borderopacity="1.0"
     inkscape:pageopacity="0.0"
     inkscape:pageshadow="2"
     inkscape:zoom="0.98994949"
     inkscape:cx="199.34559"
     inkscape:cy="574.56979"
     inkscape:document-units="mm"
     inkscape:current-layer="layer1"
     showgrid="false"
     inkscape:window-width="2256"
     inkscape:window-height="1481"
     inkscape:window-x="-8"
     inkscape:window-y="-8"
     inkscape:window-maximized="1">
    <inkscape:grid
       type="xygrid"
       id="grid817" />
  </sodipodi:namedview>
  <metadata
     id="metadata5">
    <rdf:RDF>
      <cc:Work
         rdf:about="">
        <dc:format>image/svg+xml</dc:format>
        <dc:type
           rdf:resource="http://purl.org/dc/dcmitype/StillImage" />
        <dc:title></dc:title>
      </cc:Work>
    </rdf:RDF>
  </metadata>
  <g
     inkscape:label="Layer 1"
     inkscape:groupmode="layer"
     id="layer1">
    <g
       id="g1188">
      <circle
         r="41.694046"
         cy="143.05275"
         cx="54.790245"
         id="path815"
         style="opacity:1;vector-effect:none;fill:url(#radialGradient840);fill-opacity:1;stroke:none;stroke-width:0.02645833;stroke-linecap:butt;stroke-linejoin:miter;stroke-miterlimit:4;stroke-dasharray:none;stroke-dashoffset:0;stroke-opacity:1" />
      <circle
         r="41.694046"
         cy="143.05275"
         cx="54.790245"
         id="path815-3"
         style="opacity:1;vector-effect:none;fill:url(#radialGradient840-0);fill-opacity:1;stroke:none;stroke-width:0.02645833;stroke-linecap:butt;stroke-linejoin:miter;stroke-miterlimit:4;stroke-dasharray:none;stroke-dashoffset:0;stroke-opacity:1" />
      <path
         id="path872-8-0"
         d="m 53.928087,124.27043 a 18.803116,18.803116 0 0 0 -15.396993,9.38082 18.803116,18.803116 0 0 0 6.882268,25.68526 18.803116,18.803116 0 0 0 25.68577,-6.88227 18.803116,18.803116 0 0 0 -6.882783,-25.68577 18.803116,18.803116 0 0 0 -10.288262,-2.49804 z m 0.145211,3.08095 a 15.719006,15.719006 0 0 1 1.57148,0.004 15.719006,15.719006 0 0 1 1.562695,0.16123 15.719006,15.719006 0 0 1 1.538925,0.31677 15.719006,15.719006 0 0 1 1.500167,0.46819 15.719006,15.719006 0 0 1 1.445389,0.61599 15.719006,15.719006 0 0 1 0.982369,0.52193 15.719006,15.719006 0 0 1 1.319816,0.85266 15.719006,15.719006 0 0 1 1.228349,0.9803 15.719006,15.719006 0 0 1 1.123963,1.09761 15.719006,15.719006 0 0 1 1.008724,1.20458 15.719006,15.719006 0 0 1 0.883666,1.29914 15.719006,15.719006 0 0 1 0.749308,1.38131 15.719006,15.719006 0 0 1 0.607716,1.44901 15.719006,15.719006 0 0 1 0.460436,1.50223 15.719006,15.719006 0 0 1 0.307994,1.54099 15.719006,15.719006 0 0 1 0.152445,1.56373 15.719006,15.719006 0 0 1 -0.0047,1.57097 15.719006,15.719006 0 0 1 -0.161232,1.56321 15.719006,15.719006 0 0 1 -0.316259,1.53892 15.719006,15.719006 0 0 1 -0.468704,1.49965 15.719006,15.719006 0 0 1 -0.615984,1.44539 15.719006,15.719006 0 0 1 -0.521931,0.98289 15.719006,15.719006 0 0 1 -0.852662,1.31981 15.719006,15.719006 0 0 1 -0.979784,1.22784 15.719006,15.719006 0 0 1 -1.098124,1.12396 15.719006,15.719006 0 0 1 -1.204579,1.00924 15.719006,15.719006 0 0 1 -1.299146,0.88367 15.719006,15.719006 0 0 1 -1.38131,0.74931 15.719006,15.719006 0 0 1 -1.448491,0.60771 15.719006,15.719006 0 0 1 -1.502751,0.45992 15.719006,15.719006 0 0 1 -1.540473,0.30799 15.719006,15.719006 0 0 1 -1.564246,0.15245 15.719006,15.719006 0 0 1 -1.570964,-0.004 15.719006,15.719006 0 0 1 -1.563211,-0.16123 15.719006,15.719006 0 0 1 -1.538925,-0.31678 15.719006,15.719006 0 0 1 -1.49965,-0.4687 15.719006,15.719006 0 0 1 -1.44539,-0.61547 15.719006,15.719006 0 0 1 -0.982885,-0.52193 15.719006,15.719006 0 0 1 -1.319815,-0.85266 15.719006,15.719006 0 0 1 -1.227834,-0.9803 15.719006,15.719006 0 0 1 -1.123963,-1.09761 15.719006,15.719006 0 0 1 -1.00924,-1.20458 15.719006,15.719006 0 0 1 -0.88315,-1.29966 15.719006,15.719006 0 0 1 -0.749824,-1.38079 15.719006,15.719006 0 0 1 -0.607716,-1.44901 15.719006,15.719006 0 0 1 -0.45992,-1.50223 15.719006,15.719006 0 0 1 -0.307991,-1.541 15.719006,15.719006 0 0 1 -0.152447,-1.56372 15.719006,15.719006 0 0 1 0.0047,-1.57149 15.719006,15.719006 0 0 1 0.161232,-1.56269 15.719006,15.719006 0 0 1 0.316259,-1.53893 15.719006,15.719006 0 0 1 0.468707,-1.49965 15.719006,15.719006 0 0 1 0.615982,-1.4459 15.719006,15.719006 0 0 1 0.521414,-0.98237 15.719006,15.719006 0 0 1 0.852662,-1.31982 15.719006,15.719006 0 0 1 0.980303,-1.22835 15.719006,15.719006 0 0 1 1.098124,-1.12396 15.719006,15.719006 0 0 1 1.204576,-1.00872 15.719006,15.719006 0 0 1 1.299147,-0.88367 15.719006,15.719006 0 0 1 1.380794,-0.74931 15.719006,15.719006 0 0 1 1.449006,-0.60771 15.719006,15.719006 0 0 1 1.502236,-0.46044 15.719006,15.719006 0 0 1 1.540989,-0.30747 15.719006,15.719006 0 0 1 1.563729,-0.15245 z"
         style="opacity:1;vector-effect:none;fill:#000000;fill-opacity:1;stroke:none;stroke-width:0.01969749;stroke-linecap:butt;stroke-linejoin:miter;stroke-miterlimit:4;stroke-dasharray:none;stroke-dashoffset:0;stroke-opacity:1"
         inkscape:connector-curvature="0" />
      <path
         id="path1134"
         d="m 57.456555,145.10534 1.991608,3.4494 a 15.719008,15.719008 0 0 1 0.33228,-0.17053 15.719008,15.719008 0 0 1 1.46296,-0.57361 15.719008,15.719008 0 0 1 1.513086,-0.42427 15.719008,15.719008 0 0 1 1.547194,-0.27181 15.719008,15.719008 0 0 1 1.567344,-0.11524 15.719008,15.719008 0 0 1 1.570447,0.0413 15.719008,15.719008 0 0 1 1.558563,0.19792 15.719008,15.719008 0 0 1 1.531173,0.35295 15.719008,15.719008 0 0 1 1.488281,0.50333 15.719008,15.719008 0 0 1 1.430919,0.65009 15.719008,15.719008 0 0 1 1.358572,0.78961 15.719008,15.719008 0 0 1 1.272792,0.92088 15.719008,15.719008 0 0 1 1.174604,1.04386 15.719008,15.719008 0 0 1 1.064535,1.15549 15.719008,15.719008 0 0 1 0.943613,1.25625 15.719008,15.719008 0 0 1 0.590145,0.94309 15.719008,15.719008 0 0 1 0.716751,1.39837 15.719008,15.719008 0 0 1 0.573609,1.46296 15.719008,15.719008 0 0 1 0.424264,1.51257 15.719008,15.719008 0 0 1 0.271817,1.54771 15.719008,15.719008 0 0 1 0.11524,1.56734 15.719008,15.719008 0 0 1 -0.04134,1.57045 15.719008,15.719008 0 0 1 -0.197922,1.55856 15.719008,15.719008 0 0 1 -0.352951,1.53117 15.719008,15.719008 0 0 1 -0.281636,0.83199 18.803117,18.803117 0 0 0 -0.492993,-17.87591 18.803117,18.803117 0 0 0 -15.396993,-9.38082 18.803117,18.803117 0 0 0 -7.293613,1.10898 3.3063656,3.3063656 0 0 1 0.115756,0.29559 3.3063656,3.3063656 0 0 1 0.0894,0.31781 3.3063656,3.3063656 0 0 1 0.05684,0.32556 3.3063656,3.3063656 0 0 1 0.02429,0.32969 3.3063656,3.3063656 0 0 1 -0.0088,0.33022 3.3063656,3.3063656 0 0 1 -0.04134,0.32814 3.3063656,3.3063656 0 0 1 -0.07441,0.32194 3.3063656,3.3063656 0 0 1 -0.105937,0.31316 3.3063656,3.3063656 0 0 1 -0.136943,0.30076 3.3063656,3.3063656 0 0 1 -0.16588,0.28577 3.3063656,3.3063656 0 0 1 -0.193786,0.26769 3.3063656,3.3063656 0 0 1 -0.0016,0.002 z"
         style="opacity:1;vector-effect:none;fill:#000000;fill-opacity:1;stroke:none;stroke-width:0.01969749;stroke-linecap:butt;stroke-linejoin:miter;stroke-miterlimit:4;stroke-dasharray:none;stroke-dashoffset:0;stroke-opacity:1"
         inkscape:connector-curvature="0" />
      <path
         id="path1132"
         d="m 52.213981,144.98338 a 18.803117,18.803117 0 0 0 -4.191992,23.77891 18.803117,18.803117 0 0 0 15.147396,9.35447 15.719008,15.719008 0 0 1 -1.21698,-0.28061 15.719008,15.719008 0 0 1 -1.488281,-0.50384 15.719008,15.719008 0 0 1 -1.430404,-0.64957 15.719008,15.719008 0 0 1 -1.358575,-0.78962 15.719008,15.719008 0 0 1 -1.273307,-0.92087 15.719008,15.719008 0 0 1 -1.174604,-1.04387 15.719008,15.719008 0 0 1 -1.064536,-1.15548 15.719008,15.719008 0 0 1 -0.943612,-1.25626 15.719008,15.719008 0 0 1 -0.590143,-0.94361 15.719008,15.719008 0 0 1 -0.716753,-1.39836 15.719008,15.719008 0 0 1 -0.573609,-1.46245 15.719008,15.719008 0 0 1 -0.424781,-1.51257 15.719008,15.719008 0 0 1 -0.271301,-1.54822 15.719008,15.719008 0 0 1 -0.115236,-1.56683 15.719008,15.719008 0 0 1 0.04134,-1.57045 15.719008,15.719008 0 0 1 0.198437,-1.55856 15.719008,15.719008 0 0 1 0.352433,-1.53169 15.719008,15.719008 0 0 1 0.503846,-1.48776 15.719008,15.719008 0 0 1 0.649571,-1.43092 15.719008,15.719008 0 0 1 0.789617,-1.35858 15.719008,15.719008 0 0 1 0.92139,-1.27279 15.719008,15.719008 0 0 1 1.043348,-1.1746 15.719008,15.719008 0 0 1 1.155485,-1.06505 15.719008,15.719008 0 0 1 1.188556,-0.89245 l -1.987992,-3.44321 a 3.3063656,3.3063656 0 0 1 -0.09612,0.0171 3.3063656,3.3063656 0 0 1 -0.329179,0.0243 3.3063656,3.3063656 0 0 1 -0.330729,-0.009 3.3063656,3.3063656 0 0 1 -0.327629,-0.0418 3.3063656,3.3063656 0 0 1 -0.321945,-0.0744 3.3063656,3.3063656 0 0 1 -0.313158,-0.10593 3.3063656,3.3063656 0 0 1 -0.300757,-0.13643 3.3063656,3.3063656 0 0 1 -0.285771,-0.16588 3.3063656,3.3063656 0 0 1 -0.2682,-0.19379 3.3063656,3.3063656 0 0 1 -0.247013,-0.21962 3.3063656,3.3063656 0 0 1 -0.22376,-0.2434 3.3063656,3.3063656 0 0 1 -0.125056,-0.1664 z"
         style="opacity:1;vector-effect:none;fill:#000000;fill-opacity:1;stroke:none;stroke-width:0.01969749;stroke-linecap:butt;stroke-linejoin:miter;stroke-miterlimit:4;stroke-dasharray:none;stroke-dashoffset:0;stroke-opacity:1"
         inkscape:connector-curvature="0" />
      <path
         id="path1129"
         d="m 57.435367,140.93815 a 3.3063656,3.3063656 0 0 1 0.183967,0.24443 3.3063656,3.3063656 0 0 1 0.124024,0.19844 3.3063656,3.3063656 0 0 1 0.150378,0.29403 3.3063656,3.3063656 0 0 1 0.120923,0.308 3.3063656,3.3063656 0 0 1 0.0894,0.31781 3.3063656,3.3063656 0 0 1 0.05684,0.32556 3.3063656,3.3063656 0 0 1 0.02429,0.32969 3.3063656,3.3063656 0 0 1 -0.0088,0.33022 3.3063656,3.3063656 0 0 1 -0.04134,0.32814 3.3063656,3.3063656 0 0 1 -0.07441,0.32194 3.3063656,3.3063656 0 0 1 -0.105937,0.31316 3.3063656,3.3063656 0 0 1 -0.08165,0.17881 18.803117,18.803117 0 0 0 22.653913,-8.27185 18.803117,18.803117 0 0 0 0.528134,-17.79478 15.719008,15.719008 0 0 1 0.365353,1.19372 15.719008,15.719008 0 0 1 0.307991,1.54048 15.719008,15.719008 0 0 1 0.152445,1.56424 15.719008,15.719008 0 0 1 -0.0041,1.57097 15.719008,15.719008 0 0 1 -0.161229,1.56321 15.719008,15.719008 0 0 1 -0.316259,1.53892 15.719008,15.719008 0 0 1 -0.468707,1.49965 15.719008,15.719008 0 0 1 -0.615981,1.44539 15.719008,15.719008 0 0 1 -0.521933,0.98289 15.719008,15.719008 0 0 1 -0.852144,1.3193 15.719008,15.719008 0 0 1 -0.980818,1.22835 15.719008,15.719008 0 0 1 -1.097608,1.12396 15.719008,15.719008 0 0 1 -1.204577,1.00872 15.719008,15.719008 0 0 1 -1.299146,0.88367 15.719008,15.719008 0 0 1 -1.38131,0.74983 15.719008,15.719008 0 0 1 -1.448491,0.60719 15.719008,15.719008 0 0 1 -1.502751,0.46044 15.719008,15.719008 0 0 1 -1.540476,0.30799 15.719008,15.719008 0 0 1 -1.563727,0.15245 15.719008,15.719008 0 0 1 -1.571482,-0.005 15.719008,15.719008 0 0 1 -1.562695,-0.16123 15.719008,15.719008 0 0 1 -1.538923,-0.31626 15.719008,15.719008 0 0 1 -1.500166,-0.46871 15.719008,15.719008 0 0 1 -1.367877,-0.58291 z"
         style="opacity:1;vector-effect:none;fill:#000000;fill-opacity:1;stroke:none;stroke-width:0.01969749;stroke-linecap:butt;stroke-linejoin:miter;stroke-miterlimit:4;stroke-dasharray:none;stroke-dashoffset:0;stroke-opacity:1"
         inkscape:connector-curvature="0" />
      <path
         id="path872-8"
         d="m 63.192121,107.98874 a 18.803117,18.803117 0 0 0 -8.732282,2.70836 18.803117,18.803117 0 0 0 -6.500379,6.65644 18.803117,18.803117 0 0 0 4.201811,23.80475 3.3063656,3.3063656 0 0 1 0.140044,-0.19379 3.3063656,3.3063656 0 0 1 0.219623,-0.24701 3.3063656,3.3063656 0 0 1 0.242879,-0.22428 3.3063656,3.3063656 0 0 1 0.264584,-0.19843 3.3063656,3.3063656 0 0 1 0.198437,-0.12403 3.3063656,3.3063656 0 0 1 0.294039,-0.15089 3.3063656,3.3063656 0 0 1 0.307475,-0.12041 3.3063656,3.3063656 0 0 1 0.318326,-0.0894 3.3063656,3.3063656 0 0 1 0.325562,-0.0568 3.3063656,3.3063656 0 0 1 0.329697,-0.0243 3.3063656,3.3063656 0 0 1 0.330211,0.009 3.3063656,3.3063656 0 0 1 0.218593,0.0274 l 1.963187,-3.40082 a 15.719008,15.719008 0 0 1 -0.313161,-0.20258 15.719008,15.719008 0 0 1 -1.228346,-0.97978 15.719008,15.719008 0 0 1 -1.124479,-1.09813 15.719008,15.719008 0 0 1 -1.008208,-1.20457 15.719008,15.719008 0 0 1 -0.883669,-1.29915 15.719008,15.719008 0 0 1 -0.749824,-1.38079 15.719008,15.719008 0 0 1 -0.607713,-1.44901 15.719008,15.719008 0 0 1 -0.459923,-1.50275 15.719008,15.719008 0 0 1 -0.307991,-1.54047 15.719008,15.719008 0 0 1 -0.152445,-1.56425 15.719008,15.719008 0 0 1 0.0041,-1.57096 15.719008,15.719008 0 0 1 0.161229,-1.56322 15.719008,15.719008 0 0 1 0.316259,-1.53892 15.719008,15.719008 0 0 1 0.468707,-1.49965 15.719008,15.719008 0 0 1 0.615981,-1.44539 15.719008,15.719008 0 0 1 0.521933,-0.98289 15.719008,15.719008 0 0 1 0.852144,-1.31981 15.719008,15.719008 0 0 1 0.980818,-1.22783 15.719008,15.719008 0 0 1 1.097608,-1.12397 15.719008,15.719008 0 0 1 1.204577,-1.00872 15.719008,15.719008 0 0 1 1.299146,-0.88367 15.719008,15.719008 0 0 1 1.38131,-0.74982 15.719008,15.719008 0 0 1 1.448491,-0.60772 15.719008,15.719008 0 0 1 1.502751,-0.45992 15.719008,15.719008 0 0 1 0.858862,-0.17156 z"
         style="opacity:1;vector-effect:none;fill:#000000;fill-opacity:1;stroke:none;stroke-width:0.01969749;stroke-linecap:butt;stroke-linejoin:miter;stroke-miterlimit:4;stroke-dasharray:none;stroke-dashoffset:0;stroke-opacity:1"
         inkscape:connector-curvature="0" />
      <path
         id="path1139"
         d="m 54.509448,146.31611 a 3.3063656,3.3063656 0 0 1 -0.209807,-0.0269 3.3063656,3.3063656 0 0 1 -0.321945,-0.0744 3.3063656,3.3063656 0 0 1 -0.313158,-0.10594 3.3063656,3.3063656 0 0 1 -0.300757,-0.13642 3.3063656,3.3063656 0 0 1 -0.285771,-0.16588 3.3063656,3.3063656 0 0 1 -0.2682,-0.19379 3.3063656,3.3063656 0 0 1 -0.247013,-0.21963 3.3063656,3.3063656 0 0 1 -0.22376,-0.24339 3.3063656,3.3063656 0 0 1 -0.198438,-0.26407 3.3063656,3.3063656 0 0 1 -0.124023,-0.19844 3.3063656,3.3063656 0 0 1 -0.150895,-0.29404 3.3063656,3.3063656 0 0 1 -0.04289,-0.10955 h -4.048848 a 15.719008,15.719008 0 0 1 -0.0186,0.37311 15.719008,15.719008 0 0 1 -0.234609,1.55339 15.719008,15.719008 0 0 1 -0.388606,1.52239 15.719008,15.719008 0 0 1 -0.538986,1.47639 15.719008,15.719008 0 0 1 -0.68368,1.4149 15.719008,15.719008 0 0 1 -0.820621,1.33945 15.719008,15.719008 0 0 1 -0.951363,1.25057 15.719008,15.719008 0 0 1 -1.070737,1.14981 15.719008,15.719008 0 0 1 -1.180806,1.03714 15.719008,15.719008 0 0 1 -1.277959,0.91416 15.719008,15.719008 0 0 1 -1.362707,0.78134 15.719008,15.719008 0 0 1 -1.43402,0.64183 15.719008,15.719008 0 0 1 -1.491383,0.49557 15.719008,15.719008 0 0 1 -1.532723,0.34417 15.719008,15.719008 0 0 1 -1.56011,0.18965 15.719008,15.719008 0 0 1 -1.112078,0.0393 15.719008,15.719008 0 0 1 -1.568895,-0.0785 15.719008,15.719008 0 0 1 -1.553911,-0.23513 15.719008,15.719008 0 0 1 -1.522389,-0.38861 15.719008,15.719008 0 0 1 -1.476396,-0.53898 15.719008,15.719008 0 0 1 -1.414383,-0.68316 15.719008,15.719008 0 0 1 -1.339453,-0.82166 15.719008,15.719008 0 0 1 -1.251085,-0.95085 15.719008,15.719008 0 0 1 -1.149284,-1.07073 15.719008,15.719008 0 0 1 -0.579294,-0.65939 18.803117,18.803117 0 0 0 15.727206,8.51111 18.803117,18.803117 0 0 0 18.522383,-15.57477 z"
         style="opacity:1;vector-effect:none;fill:#000000;fill-opacity:1;stroke:none;stroke-width:0.01969749;stroke-linecap:butt;stroke-linejoin:miter;stroke-miterlimit:4;stroke-dasharray:none;stroke-dashoffset:0;stroke-opacity:1"
         inkscape:connector-curvature="0" />
      <path
         id="path872-8-6"
         d="m 35.987065,124.2849 a 18.803117,18.803117 0 0 0 -10.159072,2.98018 h -5.29e-4 a 18.803117,18.803117 0 0 0 -5.516459,5.46117 15.719008,15.719008 0 0 1 0.852662,-0.91468 15.719008,15.719008 0 0 1 1.18029,-1.03714 15.719008,15.719008 0 0 1 1.277956,-0.91416 15.719008,15.719008 0 0 1 1.363226,-0.78135 15.719008,15.719008 0 0 1 1.434021,-0.64182 15.719008,15.719008 0 0 1 1.490866,-0.49557 15.719008,15.719008 0 0 1 1.533239,-0.34417 15.719008,15.719008 0 0 1 1.559595,-0.18965 15.719008,15.719008 0 0 1 1.112075,-0.0393 15.719008,15.719008 0 0 1 1.569413,0.0785 15.719008,15.719008 0 0 1 1.553911,0.23513 15.719008,15.719008 0 0 1 1.52187,0.38861 15.719008,15.719008 0 0 1 1.476397,0.53898 15.719008,15.719008 0 0 1 1.414385,0.68316 15.719008,15.719008 0 0 1 1.339453,0.82114 15.719008,15.719008 0 0 1 1.251085,0.95137 15.719008,15.719008 0 0 1 1.1498,1.07073 15.719008,15.719008 0 0 1 1.03663,1.18029 15.719008,15.719008 0 0 1 0.914156,1.27848 15.719008,15.719008 0 0 1 0.781865,1.3627 15.719008,15.719008 0 0 1 0.641821,1.43402 15.719008,15.719008 0 0 1 0.495578,1.49139 15.719008,15.719008 0 0 1 0.344165,1.53272 15.719008,15.719008 0 0 1 0.1788,1.47588 h 3.995621 a 3.3063656,3.3063656 0 0 1 0.02479,-0.0729 3.3063656,3.3063656 0 0 1 0.136943,-0.30075 3.3063656,3.3063656 0 0 1 0.165881,-0.28577 3.3063656,3.3063656 0 0 1 0.193789,-0.26769 3.3063656,3.3063656 0 0 1 0.219622,-0.24701 3.3063656,3.3063656 0 0 1 0.24288,-0.22428 3.3063656,3.3063656 0 0 1 0.264583,-0.19843 3.3063656,3.3063656 0 0 1 0.198438,-0.12403 3.3063656,3.3063656 0 0 1 0.294039,-0.15089 3.3063656,3.3063656 0 0 1 0.307475,-0.12041 3.3063656,3.3063656 0 0 1 0.318325,-0.0894 3.3063656,3.3063656 0 0 1 0.325562,-0.0568 3.3063656,3.3063656 0 0 1 0.0031,0 18.803117,18.803117 0 0 0 -18.488276,-15.46831 z"
         style="opacity:1;vector-effect:none;fill:#000000;fill-opacity:1;stroke:none;stroke-width:0.01969749;stroke-linecap:butt;stroke-linejoin:miter;stroke-miterlimit:4;stroke-dasharray:none;stroke-dashoffset:0;stroke-opacity:1"
         inkscape:connector-curvature="0" />
    </g>
  </g>
</svg>
